# Blender 5.0.1
# www.blender.org
mtllib chain.mtl
o Torus
v -0.000000 -2.285971 0.000000
v 0.250000 -1.828777 -0.000000
v -0.000000 -1.371583 -0.000000
v -0.250000 -1.828777 0.000000
v -0.000000 -1.616425 -0.567876
v 0.250000 -1.293140 -0.454301
v -0.000000 -0.969855 -0.340726
v -0.250000 -1.293140 -0.454301
v -0.000000 -0.000000 -0.803098
v 0.250000 -0.000000 -0.642478
v -0.000000 -0.000000 -0.481859
v -0.250000 -0.000000 -0.642478
v 0.000000 1.616426 -0.567876
v 0.250000 1.293141 -0.454301
v 0.000000 0.969855 -0.340725
v -0.250000 1.293141 -0.454301
v 0.000000 2.285971 -0.000000
v 0.250000 1.828777 -0.000000
v 0.000000 1.371583 -0.000000
v -0.250000 1.828777 -0.000000
v 0.000000 1.616426 0.567876
v 0.250000 1.293141 0.454301
v 0.000000 0.969855 0.340725
v -0.250000 1.293141 0.454301
v 0.000000 -0.000000 0.803098
v 0.250000 -0.000000 0.642478
v 0.000000 -0.000000 0.481859
v -0.250000 -0.000000 0.642478
v -0.000000 -1.616425 0.567876
v 0.250000 -1.293140 0.454301
v -0.000000 -0.969855 0.340726
v -0.250000 -1.293140 0.454301
vn 0.7637 -0.4176 -0.4924
vn 0.7637 0.4176 0.4924
vn -0.7637 0.4176 0.4924
vn -0.7637 -0.4176 -0.4924
vn 0.5365 -0.1215 -0.8351
vn 0.5365 0.1215 0.8351
vn -0.5365 0.1215 0.8351
vn -0.5365 -0.1215 -0.8351
vn 0.5365 0.1215 -0.8351
vn 0.5365 -0.1215 0.8351
vn -0.5365 -0.1215 0.8351
vn -0.5365 0.1215 -0.8351
vn 0.7637 0.4176 -0.4924
vn 0.7637 -0.4176 0.4924
vn -0.7637 -0.4176 0.4924
vn -0.7637 0.4176 -0.4924
vt 0.500000 0.500000
vt 0.625000 0.500000
vt 0.625000 0.750000
vt 0.500000 0.750000
vt 0.625000 1.000000
vt 0.500000 1.000000
vt 0.500000 0.000000
vt 0.625000 0.000000
vt 0.625000 0.250000
vt 0.500000 0.250000
vt 0.750000 0.500000
vt 0.750000 0.750000
vt 0.750000 1.000000
vt 0.750000 0.000000
vt 0.750000 0.250000
vt 0.875000 0.500000
vt 0.875000 0.750000
vt 0.875000 1.000000
vt 0.875000 0.000000
vt 0.875000 0.250000
vt 1.000000 0.500000
vt 1.000000 0.750000
vt 1.000000 1.000000
vt 1.000000 0.000000
vt 1.000000 0.250000
vt 0.000000 0.500000
vt 0.125000 0.500000
vt 0.125000 0.750000
vt 0.000000 0.750000
vt 0.125000 1.000000
vt 0.000000 1.000000
vt 0.000000 0.000000
vt 0.125000 0.000000
vt 0.125000 0.250000
vt 0.000000 0.250000
vt 0.250000 0.500000
vt 0.250000 0.750000
vt 0.250000 1.000000
vt 0.250000 0.000000
vt 0.250000 0.250000
vt 0.375000 0.500000
vt 0.375000 0.750000
vt 0.375000 1.000000
vt 0.375000 0.000000
vt 0.375000 0.250000
s 0
f 1/1/1 5/2/1 6/3/1 2/4/1
f 2/4/2 6/3/2 7/5/2 3/6/2
f 3/7/3 7/8/3 8/9/3 4/10/3
f 4/10/4 8/9/4 5/2/4 1/1/4
f 5/2/5 9/11/5 10/12/5 6/3/5
f 6/3/6 10/12/6 11/13/6 7/5/6
f 7/8/7 11/14/7 12/15/7 8/9/7
f 8/9/8 12/15/8 9/11/8 5/2/8
f 9/11/9 13/16/9 14/17/9 10/12/9
f 10/12/10 14/17/10 15/18/10 11/13/10
f 11/14/11 15/19/11 16/20/11 12/15/11
f 12/15/12 16/20/12 13/16/12 9/11/12
f 13/16/13 17/21/13 18/22/13 14/17/13
f 14/17/14 18/22/14 19/23/14 15/18/14
f 15/19/15 19/24/15 20/25/15 16/20/15
f 16/20/16 20/25/16 17/21/16 13/16/16
f 17/26/2 21/27/2 22/28/2 18/29/2
f 18/29/1 22/28/1 23/30/1 19/31/1
f 19/32/4 23/33/4 24/34/4 20/35/4
f 20/35/3 24/34/3 21/27/3 17/26/3
f 21/27/6 25/36/6 26/37/6 22/28/6
f 22/28/5 26/37/5 27/38/5 23/30/5
f 23/33/8 27/39/8 28/40/8 24/34/8
f 24/34/7 28/40/7 25/36/7 21/27/7
f 25/36/10 29/41/10 30/42/10 26/37/10
f 26/37/9 30/42/9 31/43/9 27/38/9
f 27/39/12 31/44/12 32/45/12 28/40/12
f 28/40/11 32/45/11 29/41/11 25/36/11
f 29/41/14 1/1/14 2/4/14 30/42/14
f 30/42/13 2/4/13 3/6/13 31/43/13
f 31/44/16 3/7/16 4/10/16 32/45/16
f 32/45/15 4/10/15 1/1/15 29/41/15
o Torus.001
v 0.000000 0.488228 0.000000
v 0.000000 0.945422 0.250000
v 0.000000 1.402616 0.000000
v 0.000000 0.945422 -0.250000
v 0.567876 1.157773 0.000000
v 0.454301 1.481058 0.250000
v 0.340726 1.804343 0.000000
v 0.454301 1.481058 -0.250000
v 0.803098 2.774199 0.000000
v 0.642478 2.774199 0.250000
v 0.481859 2.774199 0.000000
v 0.642478 2.774199 -0.250000
v 0.567876 4.390625 0.000000
v 0.454301 4.067339 0.250000
v 0.340725 3.744054 0.000000
v 0.454301 4.067339 -0.250000
v -0.000000 5.060169 0.000000
v -0.000000 4.602975 0.250000
v -0.000000 4.145781 0.000000
v -0.000000 4.602975 -0.250000
v -0.567876 4.390625 -0.000000
v -0.454301 4.067339 0.250000
v -0.340726 3.744054 -0.000000
v -0.454301 4.067339 -0.250000
v -0.803098 2.774198 -0.000000
v -0.642478 2.774198 0.250000
v -0.481859 2.774198 -0.000000
v -0.642478 2.774198 -0.250000
v -0.567876 1.157774 -0.000000
v -0.454301 1.481059 0.250000
v -0.340726 1.804344 -0.000000
v -0.454301 1.481059 -0.250000
vn 0.4924 -0.4176 0.7637
vn -0.4924 0.4176 0.7637
vn -0.4924 0.4176 -0.7637
vn 0.4924 -0.4176 -0.7637
vn 0.8351 -0.1215 0.5365
vn -0.8351 0.1215 0.5365
vn -0.8351 0.1215 -0.5365
vn 0.8351 -0.1215 -0.5365
vn 0.8351 0.1215 0.5365
vn -0.8351 -0.1215 0.5365
vn -0.8351 -0.1215 -0.5365
vn 0.8351 0.1215 -0.5365
vn 0.4924 0.4176 0.7637
vn -0.4924 -0.4176 0.7637
vn -0.4924 -0.4176 -0.7637
vn 0.4924 0.4176 -0.7637
vt 0.500000 0.500000
vt 0.625000 0.500000
vt 0.625000 0.750000
vt 0.500000 0.750000
vt 0.625000 1.000000
vt 0.500000 1.000000
vt 0.500000 0.000000
vt 0.625000 0.000000
vt 0.625000 0.250000
vt 0.500000 0.250000
vt 0.750000 0.500000
vt 0.750000 0.750000
vt 0.750000 1.000000
vt 0.750000 0.000000
vt 0.750000 0.250000
vt 0.875000 0.500000
vt 0.875000 0.750000
vt 0.875000 1.000000
vt 0.875000 0.000000
vt 0.875000 0.250000
vt 1.000000 0.500000
vt 1.000000 0.750000
vt 1.000000 1.000000
vt 1.000000 0.000000
vt 1.000000 0.250000
vt 0.000000 0.500000
vt 0.125000 0.500000
vt 0.125000 0.750000
vt 0.000000 0.750000
vt 0.125000 1.000000
vt 0.000000 1.000000
vt 0.000000 0.000000
vt 0.125000 0.000000
vt 0.125000 0.250000
vt 0.000000 0.250000
vt 0.250000 0.500000
vt 0.250000 0.750000
vt 0.250000 1.000000
vt 0.250000 0.000000
vt 0.250000 0.250000
vt 0.375000 0.500000
vt 0.375000 0.750000
vt 0.375000 1.000000
vt 0.375000 0.000000
vt 0.375000 0.250000
s 0
f 33/46/17 37/47/17 38/48/17 34/49/17
f 34/49/18 38/48/18 39/50/18 35/51/18
f 35/52/19 39/53/19 40/54/19 36/55/19
f 36/55/20 40/54/20 37/47/20 33/46/20
f 37/47/21 41/56/21 42/57/21 38/48/21
f 38/48/22 42/57/22 43/58/22 39/50/22
f 39/53/23 43/59/23 44/60/23 40/54/23
f 40/54/24 44/60/24 41/56/24 37/47/24
f 41/56/25 45/61/25 46/62/25 42/57/25
f 42/57/26 46/62/26 47/63/26 43/58/26
f 43/59/27 47/64/27 48/65/27 44/60/27
f 44/60/28 48/65/28 45/61/28 41/56/28
f 45/61/29 49/66/29 50/67/29 46/62/29
f 46/62/30 50/67/30 51/68/30 47/63/30
f 47/64/31 51/69/31 52/70/31 48/65/31
f 48/65/32 52/70/32 49/66/32 45/61/32
f 49/71/18 53/72/18 54/73/18 50/74/18
f 50/74/17 54/73/17 55/75/17 51/76/17
f 51/77/20 55/78/20 56/79/20 52/80/20
f 52/80/19 56/79/19 53/72/19 49/71/19
f 53/72/22 57/81/22 58/82/22 54/73/22
f 54/73/21 58/82/21 59/83/21 55/75/21
f 55/78/24 59/84/24 60/85/24 56/79/24
f 56/79/23 60/85/23 57/81/23 53/72/23
f 57/81/26 61/86/26 62/87/26 58/82/26
f 58/82/25 62/87/25 63/88/25 59/83/25
f 59/84/28 63/89/28 64/90/28 60/85/28
f 60/85/27 64/90/27 61/86/27 57/81/27
f 61/86/30 33/46/30 34/49/30 62/87/30
f 62/87/29 34/49/29 35/51/29 63/88/29
f 63/89/32 35/52/32 36/55/32 64/90/32
f 64/90/31 36/55/31 33/46/31 61/86/31
o Torus.002
v -0.000000 3.226495 0.000000
v 0.250000 3.683689 -0.000000
v -0.000000 4.140883 -0.000000
v -0.250000 3.683689 0.000000
v -0.000000 3.896040 -0.567876
v 0.250000 4.219325 -0.454301
v -0.000000 4.542610 -0.340726
v -0.250000 4.219325 -0.454301
v -0.000000 5.512465 -0.803098
v 0.250000 5.512465 -0.642478
v -0.000000 5.512465 -0.481859
v -0.250000 5.512465 -0.642478
v 0.000000 7.128891 -0.567876
v 0.250000 6.805606 -0.454301
v 0.000000 6.482321 -0.340725
v -0.250000 6.805606 -0.454301
v 0.000000 7.798436 -0.000000
v 0.250000 7.341242 -0.000000
v 0.000000 6.884048 -0.000000
v -0.250000 7.341242 -0.000000
v 0.000000 7.128891 0.567876
v 0.250000 6.805606 0.454301
v 0.000000 6.482321 0.340725
v -0.250000 6.805606 0.454301
v 0.000000 5.512465 0.803098
v 0.250000 5.512465 0.642478
v 0.000000 5.512465 0.481859
v -0.250000 5.512465 0.642478
v -0.000000 3.896041 0.567876
v 0.250000 4.219326 0.454301
v -0.000000 4.542611 0.340726
v -0.250000 4.219326 0.454301
vn 0.7637 -0.4176 -0.4924
vn 0.7637 0.4176 0.4924
vn -0.7637 0.4176 0.4924
vn -0.7637 -0.4176 -0.4924
vn 0.5365 -0.1215 -0.8351
vn 0.5365 0.1215 0.8351
vn -0.5365 0.1215 0.8351
vn -0.5365 -0.1215 -0.8351
vn 0.5365 0.1215 -0.8351
vn 0.5365 -0.1215 0.8351
vn -0.5365 -0.1215 0.8351
vn -0.5365 0.1215 -0.8351
vn 0.7637 0.4176 -0.4924
vn 0.7637 -0.4176 0.4924
vn -0.7637 -0.4176 0.4924
vn -0.7637 0.4176 -0.4924
vt 0.500000 0.500000
vt 0.625000 0.500000
vt 0.625000 0.750000
vt 0.500000 0.750000
vt 0.625000 1.000000
vt 0.500000 1.000000
vt 0.500000 0.000000
vt 0.625000 0.000000
vt 0.625000 0.250000
vt 0.500000 0.250000
vt 0.750000 0.500000
vt 0.750000 0.750000
vt 0.750000 1.000000
vt 0.750000 0.000000
vt 0.750000 0.250000
vt 0.875000 0.500000
vt 0.875000 0.750000
vt 0.875000 1.000000
vt 0.875000 0.000000
vt 0.875000 0.250000
vt 1.000000 0.500000
vt 1.000000 0.750000
vt 1.000000 1.000000
vt 1.000000 0.000000
vt 1.000000 0.250000
vt 0.000000 0.500000
vt 0.125000 0.500000
vt 0.125000 0.750000
vt 0.000000 0.750000
vt 0.125000 1.000000
vt 0.000000 1.000000
vt 0.000000 0.000000
vt 0.125000 0.000000
vt 0.125000 0.250000
vt 0.000000 0.250000
vt 0.250000 0.500000
vt 0.250000 0.750000
vt 0.250000 1.000000
vt 0.250000 0.000000
vt 0.250000 0.250000
vt 0.375000 0.500000
vt 0.375000 0.750000
vt 0.375000 1.000000
vt 0.375000 0.000000
vt 0.375000 0.250000
s 0
f 65/91/33 69/92/33 70/93/33 66/94/33
f 66/94/34 70/93/34 71/95/34 67/96/34
f 67/97/35 71/98/35 72/99/35 68/100/35
f 68/100/36 72/99/36 69/92/36 65/91/36
f 69/92/37 73/101/37 74/102/37 70/93/37
f 70/93/38 74/102/38 75/103/38 71/95/38
f 71/98/39 75/104/39 76/105/39 72/99/39
f 72/99/40 76/105/40 73/101/40 69/92/40
f 73/101/41 77/106/41 78/107/41 74/102/41
f 74/102/42 78/107/42 79/108/42 75/103/42
f 75/104/43 79/109/43 80/110/43 76/105/43
f 76/105/44 80/110/44 77/106/44 73/101/44
f 77/106/45 81/111/45 82/112/45 78/107/45
f 78/107/46 82/112/46 83/113/46 79/108/46
f 79/109/47 83/114/47 84/115/47 80/110/47
f 80/110/48 84/115/48 81/111/48 77/106/48
f 81/116/34 85/117/34 86/118/34 82/119/34
f 82/119/33 86/118/33 87/120/33 83/121/33
f 83/122/36 87/123/36 88/124/36 84/125/36
f 84/125/35 88/124/35 85/117/35 81/116/35
f 85/117/38 89/126/38 90/127/38 86/118/38
f 86/118/37 90/127/37 91/128/37 87/120/37
f 87/123/40 91/129/40 92/130/40 88/124/40
f 88/124/39 92/130/39 89/126/39 85/117/39
f 89/126/42 93/131/42 94/132/42 90/127/42
f 90/127/41 94/132/41 95/133/41 91/128/41
f 91/129/44 95/134/44 96/135/44 92/130/44
f 92/130/43 96/135/43 93/131/43 89/126/43
f 93/131/46 65/91/46 66/94/46 94/132/46
f 94/132/45 66/94/45 67/96/45 95/133/45
f 95/134/48 67/97/48 68/100/48 96/135/48
f 96/135/47 68/100/47 65/91/47 93/131/47
o Torus.003
v 0.000000 6.000694 0.000000
v 0.000000 6.457889 0.250000
v 0.000000 6.915082 0.000000
v 0.000000 6.457889 -0.250000
v 0.567876 6.670240 0.000000
v 0.454301 6.993525 0.250000
v 0.340726 7.316810 0.000000
v 0.454301 6.993525 -0.250000
v 0.803098 8.286665 0.000000
v 0.642478 8.286665 0.250000
v 0.481859 8.286665 0.000000
v 0.642478 8.286665 -0.250000
v 0.567876 9.903090 0.000000
v 0.454301 9.579805 0.250000
v 0.340725 9.256520 0.000000
v 0.454301 9.579805 -0.250000
v -0.000000 10.572636 0.000000
v -0.000000 10.115441 0.250000
v -0.000000 9.658247 0.000000
v -0.000000 10.115441 -0.250000
v -0.567876 9.903090 -0.000000
v -0.454301 9.579805 0.250000
v -0.340726 9.256520 -0.000000
v -0.454301 9.579805 -0.250000
v -0.803098 8.286665 -0.000000
v -0.642478 8.286665 0.250000
v -0.481859 8.286665 -0.000000
v -0.642478 8.286665 -0.250000
v -0.567876 6.670240 -0.000000
v -0.454301 6.993526 0.250000
v -0.340726 7.316810 -0.000000
v -0.454301 6.993526 -0.250000
vn 0.4924 -0.4176 0.7637
vn -0.4924 0.4176 0.7637
vn -0.4924 0.4176 -0.7637
vn 0.4924 -0.4176 -0.7637
vn 0.8351 -0.1215 0.5365
vn -0.8351 0.1215 0.5365
vn -0.8351 0.1215 -0.5365
vn 0.8351 -0.1215 -0.5365
vn 0.8351 0.1215 0.5365
vn -0.8351 -0.1215 0.5365
vn -0.8351 -0.1215 -0.5365
vn 0.8351 0.1215 -0.5365
vn 0.4924 0.4176 0.7637
vn -0.4924 -0.4176 0.7637
vn -0.4924 -0.4176 -0.7637
vn 0.4924 0.4176 -0.7637
vt 0.500000 0.500000
vt 0.625000 0.500000
vt 0.625000 0.750000
vt 0.500000 0.750000
vt 0.625000 1.000000
vt 0.500000 1.000000
vt 0.500000 0.000000
vt 0.625000 0.000000
vt 0.625000 0.250000
vt 0.500000 0.250000
vt 0.750000 0.500000
vt 0.750000 0.750000
vt 0.750000 1.000000
vt 0.750000 0.000000
vt 0.750000 0.250000
vt 0.875000 0.500000
vt 0.875000 0.750000
vt 0.875000 1.000000
vt 0.875000 0.000000
vt 0.875000 0.250000
vt 1.000000 0.500000
vt 1.000000 0.750000
vt 1.000000 1.000000
vt 1.000000 0.000000
vt 1.000000 0.250000
vt 0.000000 0.500000
vt 0.125000 0.500000
vt 0.125000 0.750000
vt 0.000000 0.750000
vt 0.125000 1.000000
vt 0.000000 1.000000
vt 0.000000 0.000000
vt 0.125000 0.000000
vt 0.125000 0.250000
vt 0.000000 0.250000
vt 0.250000 0.500000
vt 0.250000 0.750000
vt 0.250000 1.000000
vt 0.250000 0.000000
vt 0.250000 0.250000
vt 0.375000 0.500000
vt 0.375000 0.750000
vt 0.375000 1.000000
vt 0.375000 0.000000
vt 0.375000 0.250000
s 0
f 97/136/49 101/137/49 102/138/49 98/139/49
f 98/139/50 102/138/50 103/140/50 99/141/50
f 99/142/51 103/143/51 104/144/51 100/145/51
f 100/145/52 104/144/52 101/137/52 97/136/52
f 101/137/53 105/146/53 106/147/53 102/138/53
f 102/138/54 106/147/54 107/148/54 103/140/54
f 103/143/55 107/149/55 108/150/55 104/144/55
f 104/144/56 108/150/56 105/146/56 101/137/56
f 105/146/57 109/151/57 110/152/57 106/147/57
f 106/147/58 110/152/58 111/153/58 107/148/58
f 107/149/59 111/154/59 112/155/59 108/150/59
f 108/150/60 112/155/60 109/151/60 105/146/60
f 109/151/61 113/156/61 114/157/61 110/152/61
f 110/152/62 114/157/62 115/158/62 111/153/62
f 111/154/63 115/159/63 116/160/63 112/155/63
f 112/155/64 116/160/64 113/156/64 109/151/64
f 113/161/50 117/162/50 118/163/50 114/164/50
f 114/164/49 118/163/49 119/165/49 115/166/49
f 115/167/52 119/168/52 120/169/52 116/170/52
f 116/170/51 120/169/51 117/162/51 113/161/51
f 117/162/54 121/171/54 122/172/54 118/163/54
f 118/163/53 122/172/53 123/173/53 119/165/53
f 119/168/56 123/174/56 124/175/56 120/169/56
f 120/169/55 124/175/55 121/171/55 117/162/55
f 121/171/58 125/176/58 126/177/58 122/172/58
f 122/172/57 126/177/57 127/178/57 123/173/57
f 123/174/60 127/179/60 128/180/60 124/175/60
f 124/175/59 128/180/59 125/176/59 121/171/59
f 125/176/62 97/136/62 98/139/62 126/177/62
f 126/177/61 98/139/61 99/141/61 127/178/61
f 127/179/64 99/142/64 100/145/64 128/180/64
f 128/180/63 100/145/63 97/136/63 125/176/63
