# Blender 5.0.1
# www.blender.org
mtllib open_cube_better.mtl
o Cube
v 0.963099 0.963099 -1.000000
v 0.963099 1.000000 -0.963099
v 1.000000 0.963099 -0.963099
v 0.963099 -1.000000 -0.963099
v 0.963099 -0.963099 -1.000000
v 1.000000 -0.963099 -0.963099
v 1.000000 0.963099 0.963099
v 0.963099 1.000000 0.963099
v 0.963099 0.963099 1.000000
v 1.000000 -0.963099 0.963099
v 0.963099 -0.963099 1.000000
v 0.963099 -1.000000 0.963099
v -1.000000 0.910914 -0.963099
v -1.000000 0.963099 -0.910914
v -0.963099 1.000000 -0.963099
v -0.963099 0.963099 -1.000000
v -1.000000 -0.963099 -0.910914
v -1.000000 -0.910914 -0.963099
v -0.963099 -0.963099 -1.000000
v -0.963099 -1.000000 -0.963099
v -1.000000 0.910914 0.963099
v -0.963099 0.963099 1.000000
v -0.963099 1.000000 0.963099
v -1.000000 0.963099 0.910914
v -1.000000 -0.963099 0.910914
v -0.963099 -1.000000 0.963099
v -0.963099 -0.963099 1.000000
v -1.000000 -0.910914 0.963099
v 0.870725 0.870319 -0.907222
v 0.907624 0.870723 -0.870723
v 0.870725 0.907222 -0.870319
v 0.870725 -0.907222 -0.870319
v 0.907624 -0.870723 -0.870723
v 0.870725 -0.870319 -0.907222
v 0.907624 0.870723 0.870723
v 0.870725 0.870319 0.907222
v 0.870725 0.907222 0.870319
v 0.907624 -0.870723 0.870723
v 0.870725 -0.907222 0.870319
v 0.870725 -0.870319 0.907222
v -1.000000 0.871578 -0.923764
v -0.963102 0.850362 -0.887264
v -0.963102 0.887264 -0.850362
v -1.000000 0.923764 -0.871578
v -1.000000 -0.923764 -0.871578
v -0.963102 -0.887264 -0.850362
v -0.963102 -0.850362 -0.887264
v -1.000000 -0.871578 -0.923764
v -1.000000 0.871578 0.923764
v -1.000000 0.923764 0.871578
v -0.963102 0.887264 0.850362
v -0.963102 0.850362 0.887264
v -1.000000 -0.923764 0.871578
v -1.000000 -0.871578 0.923764
v -0.963102 -0.850362 0.887264
v -0.963102 -0.887264 0.850362
vn 0.5774 0.5774 -0.5774
vn 0.5774 -0.5774 -0.5774
vn 0.5774 0.5774 0.5774
vn 0.5774 -0.5774 0.5774
vn -0.8629 0.3574 -0.3574
vn -0.8629 -0.3574 -0.3574
vn -0.8629 0.3574 0.3574
vn -0.8629 -0.3574 0.3574
vn -0.5689 -0.5815 0.5815
vn -0.5689 0.5815 0.5815
vn -0.5689 -0.5815 -0.5815
vn -0.5689 0.5815 -0.5815
vn -0.7418 -0.4742 0.4742
vn -0.7418 0.4742 0.4742
vn -0.7418 -0.4742 -0.4742
vn -0.7418 0.4742 -0.4742
vn -0.7071 -0.7071 -0.0000
vn -0.0000 -0.7071 -0.7071
vn 0.7071 -0.0000 -0.7071
vn -0.7071 -0.0000 0.7071
vn 0.7071 -0.0000 0.7071
vn -0.7071 -0.0000 -0.7071
vn -0.0000 0.7071 0.7071
vn 0.7071 0.7071 -0.0000
vn -0.0000 -0.7071 0.7071
vn -0.7071 0.7071 -0.0000
vn -0.0000 0.7071 -0.7071
vn 0.7071 -0.7071 -0.0000
vn -0.7032 0.7109 -0.0000
vn 0.0154 0.7070 0.7070
vn -0.7032 -0.0000 0.7109
vn -0.7032 -0.0000 -0.7109
vn 0.0154 -0.7070 -0.7070
vn -0.7032 -0.7109 -0.0000
vn 0.0154 0.7070 -0.7070
vn 0.0154 -0.7070 0.7070
vn -1.0000 -0.0000 -0.0000
vn -0.0000 -0.0000 -1.0000
vn 1.0000 -0.0000 -0.0000
vn -0.0000 1.0000 -0.0000
vn -0.0000 -1.0000 -0.0000
vn -0.0000 -0.0000 1.0000
vn 0.0109 -0.0000 0.9999
vn 0.0109 -0.9999 -0.0000
vn 0.0109 0.9999 -0.0000
vn 0.0109 -0.0000 -0.9999
vt 0.620387 0.495387
vt 0.627306 0.500000
vt 0.620387 0.503459
vt 0.370387 0.504613
vt 0.375000 0.497694
vt 0.378459 0.504613
vt 0.620387 0.746540
vt 0.627306 0.750000
vt 0.620387 0.754613
vt 0.378459 0.745387
vt 0.375000 0.752306
vt 0.370387 0.745387
vt 0.618373 0.250000
vt 0.625000 0.250000
vt 0.625000 0.252306
vt 0.620387 0.253459
vt 0.125000 0.507755
vt 0.125000 0.502306
vt 0.129613 0.500000
vt 0.129613 0.504613
vt 0.618373 1.000000
vt 0.620387 0.996541
vt 0.625000 0.997694
vt 0.625000 1.000000
vt 0.125000 0.742246
vt 0.129613 0.745387
vt 0.129613 0.750000
vt 0.125000 0.747694
vt 0.619898 0.495164
vt 0.619918 0.503798
vt 0.627418 0.500107
vt 0.370164 0.505103
vt 0.378798 0.505082
vt 0.375107 0.497582
vt 0.619918 0.746202
vt 0.619898 0.754836
vt 0.627418 0.749893
vt 0.378798 0.744918
vt 0.370164 0.744897
vt 0.375107 0.752418
vt 0.618233 0.250000
vt 0.619817 0.253627
vt 0.625000 0.252392
vt 0.125000 0.506767
vt 0.128627 0.505183
vt 0.127392 0.500000
vt 0.125000 0.500000
vt 0.618233 1.000000
vt 0.625000 0.997608
vt 0.619817 0.996373
vt 0.125000 0.743233
vt 0.125000 0.750000
vt 0.127392 0.750000
vt 0.128627 0.744817
vt 0.379613 0.995387
vt 0.381627 1.000000
vt 0.379613 0.254613
vt 0.381627 0.250000
vt 0.870387 0.745387
vt 0.870387 0.504613
vt 0.875000 0.506627
vt 0.875000 0.743373
vt 0.381767 1.000000
vt 0.380180 0.995164
vt 0.381767 0.250000
vt 0.380180 0.254836
vt 0.875000 0.743233
vt 0.875000 0.506767
vt 0.870164 0.505180
vt 0.870164 0.744820
s 0
usemtl Material
f 1/1/1 2/2/1 3/3/1
f 4/4/2 5/5/2 6/6/2
f 7/7/3 8/8/3 9/9/3
f 10/10/4 11/11/4 12/12/4
f 13/13/5 14/14/5 15/15/5 16/16/5
f 17/17/6 18/18/6 19/19/6 20/20/6
f 21/21/7 22/22/7 23/23/7 24/24/7
f 25/25/8 26/26/8 27/27/8 28/28/8
f 29/29/9 30/30/9 31/31/9
f 32/32/10 33/33/10 34/34/10
f 35/35/11 36/36/11 37/37/11
f 38/38/12 39/39/12 40/40/12
f 41/41/13 42/42/13 43/43/13 44/14/13
f 45/44/14 46/45/14 47/46/14 48/47/14
f 49/48/15 50/24/15 51/49/15 52/50/15
f 53/51/16 54/52/16 55/53/16 56/54/16
f 20/20/17 26/26/17 25/25/17 17/17/17
f 4/4/18 20/20/18 19/19/18 5/5/18
f 3/3/19 6/6/19 5/5/19 1/1/19
f 27/55/20 22/22/20 21/21/20 28/56/20
f 9/9/21 11/11/21 10/10/21 7/7/21
f 16/16/22 19/57/22 18/58/22 13/13/22
f 8/8/23 23/23/23 22/22/23 9/9/23
f 2/2/24 8/8/24 7/7/24 3/3/24
f 26/26/25 12/12/25 11/11/25 27/27/25
f 23/59/26 15/60/26 14/61/26 24/62/26
f 15/15/27 2/2/27 1/1/27 16/16/27
f 12/12/28 4/4/28 6/6/28 10/10/28
f 45/44/29 53/51/29 56/54/29 46/45/29
f 34/34/30 47/46/30 46/45/30 32/32/30
f 29/29/31 34/34/31 33/33/31 30/30/31
f 54/63/32 49/48/32 52/50/32 55/64/32
f 35/35/32 38/38/32 40/40/32 36/36/32
f 41/41/31 48/65/31 47/66/31 42/42/31
f 36/36/33 52/50/33 51/49/33 37/37/33
f 30/30/34 35/35/34 37/37/34 31/31/34
f 55/53/35 40/40/35 39/39/35 56/54/35
f 50/67/34 44/68/34 43/69/34 51/70/34
f 42/42/36 29/29/36 31/31/36 43/43/36
f 38/38/29 33/33/29 32/32/29 39/39/29
f 13/13/37 41/41/37 44/14/37 14/14/37
f 17/17/37 45/44/37 48/47/37 18/18/37
f 24/24/37 50/24/37 49/48/37 21/21/37
f 28/28/37 54/52/37 53/51/37 25/25/37
f 19/57/38 16/16/38 1/1/38 5/5/38
f 6/6/39 3/3/39 7/7/39 10/10/39
f 2/2/40 15/60/40 23/59/40 8/8/40
f 20/20/41 4/4/41 12/12/41 26/26/41
f 11/11/42 9/9/42 22/22/42 27/55/42
f 13/13/37 18/58/37 48/65/37 41/41/37
f 24/62/37 14/61/37 44/68/37 50/67/37
f 17/17/37 25/25/37 53/51/37 45/44/37
f 28/56/37 21/21/37 49/48/37 54/63/37
f 47/66/43 34/34/43 29/29/43 42/42/43
f 33/33/37 38/38/37 35/35/37 30/30/37
f 31/31/44 37/37/44 51/70/44 43/69/44
f 46/45/45 56/54/45 39/39/45 32/32/45
f 40/40/46 55/64/46 52/50/46 36/36/46
